<svg xmlns="http://www.w3.org/2000/svg" viewBox="0 0 96 96">
	<path d="M69.5 37.5c-.9-1-2.2-1.5-3.5-1.5h-2v-2c0-8.8-7.2-16-16-16s-16 7.2-16 16v2h-3c-1.3 0-2.6.5-3.6 1.5-.9.9-1.4 2.2-1.4 3.5v29c0 1.3.6 2.6 1.5 3.5.9.9 2.2 1.5 3.5 1.5h37c1.3 0 2.6-.5 3.6-1.5.9-.9 1.5-2.2 1.5-3.6V41c-.1-1.3-.6-2.6-1.6-3.5zM37 34c0-6.1 4.9-11 11-11s11 4.9 11 11v2H37v-2zm16 22.6c-.2.8-.6 1.6-1.1 2.2-.5.6-1.3 1.1-2.1 1.3-.8.2-1.7.3-2.5.1-.8-.2-1.6-.6-2.2-1.2-.6-.6-1-1.3-1.2-2.2-.2-.9-.2-1.7.1-2.5.2-.8.7-1.5 1.3-2.1.6-.6 1.4-1 2.2-1.1.7-.1 1.5-.1 2.3.1.7.2 1.4.6 1.9 1.2.5.5.8 1 1.1 1.7.2.4.2.9.2 1.3v1.2zM68 5h18c2.8 0 5 2.2 5 5v18c0 1.4 1.1 2.5 2.5 2.5S96 29.4 96 28V10c0-5.5-4.5-10-10-10H68c-1.4 0-2.5 1.1-2.5 2.5S66.6 5 68 5zM5 28V10c0-2.8 2.2-5 5-5h18c1.4 0 2.5-1.1 2.5-2.5S29.4 0 28 0H10C4.5 0 0 4.5 0 10v18c0 1.4 1.1 2.5 2.5 2.5S5 29.4 5 28zM91 68v18c0 2.8-2.2 5-5 5H68c-1.4 0-2.5 1.1-2.5 2.5S66.6 96 68 96h18c5.5 0 10-4.5 10-10V68c0-1.4-1.1-2.5-2.5-2.5S91 66.6 91 68zM28 91H10c-2.8 0-5-2.2-5-5V68c0-1.4-1.1-2.5-2.5-2.5S0 66.6 0 68v18c0 5.5 4.5 10 10 10h18c1.4 0 2.5-1.1 2.5-2.5S29.4 91 28 91z"/>
</svg>